<mxfile host="app.diagrams.net" modified="2024-01-17T08:33:18.805Z" agent="Mozilla/5.0 (Windows NT 10.0; Win64; x64) AppleWebKit/537.36 (KHTML, like Gecko) Chrome/120.0.0.0 Safari/537.36" etag="gQtf9nUJsjZp3VyZa4pF" version="22.1.20" type="github">
  <diagram name="Page-1" id="2GRAYQbGgwGCQ1bq4cRz">
    <mxGraphModel dx="1444" dy="764" grid="1" gridSize="10" guides="1" tooltips="1" connect="1" arrows="1" fold="1" page="1" pageScale="1" pageWidth="1654" pageHeight="2336" math="0" shadow="0">
      <root>
        <mxCell id="0" />
        <mxCell id="1" parent="0" />
        <mxCell id="86X5GCkm7_wLPRHiC9uI-2" value="" style="rounded=0;whiteSpace=wrap;html=1;fillColor=#dae8fc;strokeColor=#6c8ebf;" vertex="1" parent="1">
          <mxGeometry x="150" y="60" width="1210" height="500" as="geometry" />
        </mxCell>
        <mxCell id="kXwI2ZC2WiuWiQ44R4r5-1" value=": Transmission&lt;br&gt;P&lt;span style=&quot;font-size: 8px;&quot;&gt;transmise&lt;/span&gt;&amp;nbsp;= P&lt;font style=&quot;font-size: 8px;&quot;&gt;moteur *&amp;nbsp;&amp;nbsp;&lt;/font&gt;&lt;font style=&quot;&quot;&gt;η&lt;font style=&quot;border-color: var(--border-color);&quot; color=&quot;#333333&quot;&gt;&lt;span style=&quot;border-color: var(--border-color); font-size: 8px;&quot;&gt;trans&lt;/span&gt;&lt;/font&gt;&lt;br&gt;&lt;/font&gt;" style="rounded=1;whiteSpace=wrap;html=1;fillColor=#fff2cc;strokeColor=#d6b656;" parent="1" vertex="1">
          <mxGeometry x="369.93" y="90" width="170.07" height="90" as="geometry" />
        </mxCell>
        <mxCell id="kXwI2ZC2WiuWiQ44R4r5-34" style="edgeStyle=orthogonalEdgeStyle;rounded=0;orthogonalLoop=1;jettySize=auto;html=1;exitX=0.5;exitY=1;exitDx=0;exitDy=0;entryX=0;entryY=0.5;entryDx=0;entryDy=0;endArrow=none;endFill=0;" parent="1" source="kXwI2ZC2WiuWiQ44R4r5-2" target="kXwI2ZC2WiuWiQ44R4r5-18" edge="1">
          <mxGeometry relative="1" as="geometry">
            <mxPoint x="450.2222222222222" y="310" as="targetPoint" />
          </mxGeometry>
        </mxCell>
        <mxCell id="kXwI2ZC2WiuWiQ44R4r5-2" value="" style="strokeColor=inherit;fillColor=inherit;gradientColor=inherit;shape=rect;html=1;fontSize=10;verticalLabelPosition=top;verticalAlign=bottom;" parent="1" vertex="1">
          <mxGeometry x="444.96" y="170" width="20" height="20" as="geometry" />
        </mxCell>
        <mxCell id="kXwI2ZC2WiuWiQ44R4r5-30" style="edgeStyle=orthogonalEdgeStyle;rounded=0;orthogonalLoop=1;jettySize=auto;html=1;exitX=0;exitY=0.5;exitDx=0;exitDy=0;endArrow=none;endFill=0;" parent="1" source="kXwI2ZC2WiuWiQ44R4r5-4" edge="1">
          <mxGeometry relative="1" as="geometry">
            <mxPoint x="290" y="113.36231884057969" as="targetPoint" />
          </mxGeometry>
        </mxCell>
        <mxCell id="kXwI2ZC2WiuWiQ44R4r5-4" value="" style="strokeColor=inherit;fillColor=inherit;gradientColor=inherit;shape=rect;html=1;fontSize=10;verticalLabelPosition=top;verticalAlign=bottom;" parent="1" vertex="1">
          <mxGeometry x="359.93" y="103.33" width="20" height="20" as="geometry" />
        </mxCell>
        <mxCell id="kXwI2ZC2WiuWiQ44R4r5-31" style="edgeStyle=orthogonalEdgeStyle;rounded=0;orthogonalLoop=1;jettySize=auto;html=1;exitX=0;exitY=0.5;exitDx=0;exitDy=0;endArrow=none;endFill=0;" parent="1" source="kXwI2ZC2WiuWiQ44R4r5-9" edge="1">
          <mxGeometry relative="1" as="geometry">
            <mxPoint x="290" y="149.8840579710145" as="targetPoint" />
            <Array as="points">
              <mxPoint x="290" y="160" />
            </Array>
          </mxGeometry>
        </mxCell>
        <mxCell id="kXwI2ZC2WiuWiQ44R4r5-9" value="" style="strokeColor=inherit;fillColor=inherit;gradientColor=inherit;shape=rect;html=1;fontSize=10;verticalLabelPosition=top;verticalAlign=bottom;" parent="1" vertex="1">
          <mxGeometry x="359.93" y="150" width="20" height="20" as="geometry" />
        </mxCell>
        <mxCell id="kXwI2ZC2WiuWiQ44R4r5-17" value=": Puissance Consomé par le moteur&amp;nbsp;&lt;br&gt;P&lt;span style=&quot;font-size: 8px;&quot;&gt;m&lt;/span&gt;&amp;nbsp;= V&lt;span style=&quot;font-size: 8px;&quot;&gt;m&lt;/span&gt;&amp;nbsp;* I&lt;span style=&quot;font-size: 8px;&quot;&gt;m&lt;/span&gt;" style="rounded=1;whiteSpace=wrap;html=1;fillColor=#fff2cc;strokeColor=#d6b656;" parent="1" vertex="1">
          <mxGeometry x="534.96" y="280" width="150" height="80" as="geometry" />
        </mxCell>
        <mxCell id="kXwI2ZC2WiuWiQ44R4r5-18" value="" style="strokeColor=inherit;fillColor=inherit;gradientColor=inherit;shape=rect;html=1;fontSize=10;verticalLabelPosition=top;verticalAlign=bottom;" parent="1" vertex="1">
          <mxGeometry x="529.93" y="310" width="20" height="20" as="geometry" />
        </mxCell>
        <mxCell id="kXwI2ZC2WiuWiQ44R4r5-19" value="" style="strokeColor=inherit;fillColor=inherit;gradientColor=inherit;shape=rect;html=1;fontSize=10;verticalLabelPosition=top;verticalAlign=bottom;" parent="1" vertex="1">
          <mxGeometry x="560" y="350" width="20" height="20" as="geometry" />
        </mxCell>
        <mxCell id="kXwI2ZC2WiuWiQ44R4r5-20" value="" style="strokeColor=inherit;fillColor=inherit;gradientColor=inherit;shape=rect;html=1;fontSize=10;verticalLabelPosition=top;verticalAlign=bottom;" parent="1" vertex="1">
          <mxGeometry x="645" y="350" width="20" height="20" as="geometry" />
        </mxCell>
        <mxCell id="kXwI2ZC2WiuWiQ44R4r5-23" value=": Puissance fournie par la batterie&lt;br&gt;P&lt;font style=&quot;font-size: 8px;&quot;&gt;b&lt;/font&gt; = V&lt;font style=&quot;border-color: var(--border-color); font-size: 8px;&quot;&gt;b&lt;/font&gt;&amp;nbsp;* I&lt;font style=&quot;font-size: 8px;&quot;&gt;b&lt;/font&gt;" style="rounded=1;whiteSpace=wrap;html=1;fillColor=#fff2cc;strokeColor=#d6b656;" parent="1" vertex="1">
          <mxGeometry x="204.93" y="280" width="160" height="80" as="geometry" />
        </mxCell>
        <mxCell id="kXwI2ZC2WiuWiQ44R4r5-37" style="edgeStyle=orthogonalEdgeStyle;rounded=0;orthogonalLoop=1;jettySize=auto;html=1;exitX=0.5;exitY=1;exitDx=0;exitDy=0;entryX=0.5;entryY=1;entryDx=0;entryDy=0;" parent="1" source="kXwI2ZC2WiuWiQ44R4r5-24" target="kXwI2ZC2WiuWiQ44R4r5-19" edge="1">
          <mxGeometry relative="1" as="geometry">
            <mxPoint x="570" y="440" as="targetPoint" />
            <Array as="points">
              <mxPoint x="335" y="400" />
              <mxPoint x="570" y="400" />
            </Array>
          </mxGeometry>
        </mxCell>
        <mxCell id="kXwI2ZC2WiuWiQ44R4r5-24" value="" style="strokeColor=inherit;fillColor=inherit;gradientColor=inherit;shape=rect;html=1;fontSize=10;verticalLabelPosition=top;verticalAlign=bottom;" parent="1" vertex="1">
          <mxGeometry x="324.93" y="350" width="20" height="20" as="geometry" />
        </mxCell>
        <mxCell id="kXwI2ZC2WiuWiQ44R4r5-25" value="V&lt;font style=&quot;border-color: var(--border-color); background-color: rgb(251, 251, 251); font-size: 8px;&quot;&gt;b&lt;/font&gt;&amp;nbsp;: V(tension)" style="edgeLabel;html=1;align=center;verticalAlign=middle;resizable=0;points=[];" parent="1" vertex="1" connectable="0">
          <mxGeometry x="204.93000000000006" y="380" as="geometry" />
        </mxCell>
        <mxCell id="kXwI2ZC2WiuWiQ44R4r5-38" style="edgeStyle=orthogonalEdgeStyle;rounded=0;orthogonalLoop=1;jettySize=auto;html=1;exitX=0.5;exitY=1;exitDx=0;exitDy=0;entryX=0.5;entryY=1;entryDx=0;entryDy=0;" parent="1" source="kXwI2ZC2WiuWiQ44R4r5-26" target="kXwI2ZC2WiuWiQ44R4r5-20" edge="1">
          <mxGeometry relative="1" as="geometry">
            <mxPoint x="650" y="430" as="targetPoint" />
            <Array as="points">
              <mxPoint x="245" y="440" />
              <mxPoint x="655" y="440" />
            </Array>
          </mxGeometry>
        </mxCell>
        <mxCell id="kXwI2ZC2WiuWiQ44R4r5-26" value="" style="strokeColor=inherit;fillColor=inherit;gradientColor=inherit;shape=rect;html=1;fontSize=10;verticalLabelPosition=top;verticalAlign=bottom;" parent="1" vertex="1">
          <mxGeometry x="234.93" y="350" width="20" height="20" as="geometry" />
        </mxCell>
        <mxCell id="kXwI2ZC2WiuWiQ44R4r5-27" value="P&lt;font style=&quot;border-color: var(--border-color); background-color: rgb(251, 251, 251); font-size: 8px;&quot;&gt;b&lt;/font&gt;&amp;nbsp;: W" style="edgeLabel;html=1;align=center;verticalAlign=middle;resizable=0;points=[];" parent="1" vertex="1" connectable="0">
          <mxGeometry x="398" y="306" as="geometry">
            <mxPoint x="-3" as="offset" />
          </mxGeometry>
        </mxCell>
        <mxCell id="kXwI2ZC2WiuWiQ44R4r5-35" style="edgeStyle=orthogonalEdgeStyle;rounded=0;orthogonalLoop=1;jettySize=auto;html=1;exitX=1;exitY=0.5;exitDx=0;exitDy=0;endArrow=none;endFill=0;entryX=0;entryY=0.75;entryDx=0;entryDy=0;" parent="1" source="kXwI2ZC2WiuWiQ44R4r5-28" target="V_PeOS1h4JGadpfZ_mjA-9" edge="1">
          <mxGeometry relative="1" as="geometry">
            <mxPoint x="750" y="500" as="targetPoint" />
            <Array as="points">
              <mxPoint x="510" y="320" />
              <mxPoint x="510" y="250" />
              <mxPoint x="750" y="250" />
              <mxPoint x="750" y="505" />
            </Array>
          </mxGeometry>
        </mxCell>
        <mxCell id="kXwI2ZC2WiuWiQ44R4r5-28" value="" style="strokeColor=inherit;fillColor=inherit;gradientColor=inherit;shape=rect;html=1;fontSize=10;verticalLabelPosition=top;verticalAlign=bottom;" parent="1" vertex="1">
          <mxGeometry x="354.93" y="310" width="20" height="20" as="geometry" />
        </mxCell>
        <mxCell id="kXwI2ZC2WiuWiQ44R4r5-29" value="I&lt;font style=&quot;border-color: var(--border-color); background-color: rgb(251, 251, 251); font-size: 8px;&quot;&gt;b&lt;/font&gt;&amp;nbsp;: A (courant)" style="edgeLabel;html=1;align=center;verticalAlign=middle;resizable=0;points=[];" parent="1" vertex="1" connectable="0">
          <mxGeometry x="379.93000000000006" y="380" as="geometry" />
        </mxCell>
        <mxCell id="kXwI2ZC2WiuWiQ44R4r5-39" value="I&lt;span style=&quot;font-size: 8px; background-color: rgb(251, 251, 251);&quot;&gt;m&lt;/span&gt;&amp;nbsp;: A (courant)" style="edgeLabel;html=1;align=center;verticalAlign=middle;resizable=0;points=[];" parent="1" vertex="1" connectable="0">
          <mxGeometry x="530" y="380.00478260869573" as="geometry" />
        </mxCell>
        <mxCell id="kXwI2ZC2WiuWiQ44R4r5-40" value="V&lt;span style=&quot;font-size: 8px; background-color: rgb(251, 251, 251);&quot;&gt;m&lt;/span&gt;&amp;nbsp;: V(tension)" style="edgeLabel;html=1;align=center;verticalAlign=middle;resizable=0;points=[];" parent="1" vertex="1" connectable="0">
          <mxGeometry x="620" y="380.00051282051277" as="geometry">
            <mxPoint x="76" y="16" as="offset" />
          </mxGeometry>
        </mxCell>
        <mxCell id="V_PeOS1h4JGadpfZ_mjA-1" value="P&lt;span style=&quot;border-color: var(--border-color); color: rgb(51, 51, 51); font-size: 8px;&quot;&gt;transmise : W&lt;/span&gt;" style="rounded=0;whiteSpace=wrap;html=1;" parent="1" vertex="1">
          <mxGeometry x="209.93" y="93.33" width="80" height="40" as="geometry" />
        </mxCell>
        <mxCell id="V_PeOS1h4JGadpfZ_mjA-2" value="η&lt;font color=&quot;#333333&quot;&gt;&lt;span style=&quot;font-size: 8px;&quot;&gt;trans = Efficacité de transmission&amp;nbsp;&lt;/span&gt;&lt;/font&gt;" style="rounded=0;whiteSpace=wrap;html=1;" parent="1" vertex="1">
          <mxGeometry x="209.93" y="150" width="80" height="40" as="geometry" />
        </mxCell>
        <mxCell id="V_PeOS1h4JGadpfZ_mjA-3" value="P&lt;span style=&quot;font-size: 8px; background-color: rgb(251, 251, 251);&quot;&gt;m&lt;/span&gt;&amp;nbsp;: W" style="edgeLabel;html=1;align=center;verticalAlign=middle;resizable=0;points=[];" parent="1" vertex="1" connectable="0">
          <mxGeometry x="399.93000000000006" y="310" as="geometry">
            <mxPoint x="25" y="-113" as="offset" />
          </mxGeometry>
        </mxCell>
        <mxCell id="V_PeOS1h4JGadpfZ_mjA-4" value="P&lt;span style=&quot;font-size: 8px; background-color: rgb(251, 251, 251);&quot;&gt;m&lt;/span&gt;&amp;nbsp;: W" style="edgeLabel;html=1;align=center;verticalAlign=middle;resizable=0;points=[];" parent="1" vertex="1" connectable="0">
          <mxGeometry x="480.00000000000006" y="419" as="geometry">
            <mxPoint x="25" y="-113" as="offset" />
          </mxGeometry>
        </mxCell>
        <mxCell id="V_PeOS1h4JGadpfZ_mjA-5" value="Force appliquée&amp;nbsp;à &lt;br&gt;la roue&lt;br&gt;F = τ / r&amp;nbsp;" style="rounded=1;whiteSpace=wrap;html=1;arcSize=18;fillColor=#fff2cc;strokeColor=#d6b656;" parent="1" vertex="1">
          <mxGeometry x="788.46" y="200" width="150" height="80" as="geometry" />
        </mxCell>
        <mxCell id="V_PeOS1h4JGadpfZ_mjA-6" value="Vitesse Lineaire&lt;br&gt;V = w * r" style="rounded=1;whiteSpace=wrap;html=1;fillColor=#fff2cc;strokeColor=#d6b656;" parent="1" vertex="1">
          <mxGeometry x="1148.46" y="380.00000000000006" width="160" height="90" as="geometry" />
        </mxCell>
        <mxCell id="V_PeOS1h4JGadpfZ_mjA-7" value="Couple Moteur&amp;nbsp;&lt;br&gt;τ = P/ w" style="rounded=1;whiteSpace=wrap;html=1;fillColor=#fff2cc;strokeColor=#d6b656;" parent="1" vertex="1">
          <mxGeometry x="798.46" y="460.00000000000006" width="140" height="70" as="geometry" />
        </mxCell>
        <mxCell id="V_PeOS1h4JGadpfZ_mjA-8" value="P : W" style="edgeLabel;html=1;align=center;verticalAlign=middle;resizable=0;points=[];" parent="1" vertex="1" connectable="0">
          <mxGeometry x="771.5369230769229" y="520" as="geometry" />
        </mxCell>
        <mxCell id="V_PeOS1h4JGadpfZ_mjA-9" value="" style="strokeColor=inherit;fillColor=inherit;gradientColor=inherit;shape=rect;html=1;fontSize=10;verticalLabelPosition=top;verticalAlign=bottom;" parent="1" vertex="1">
          <mxGeometry x="788.46" y="490.00000000000006" width="20" height="20" as="geometry" />
        </mxCell>
        <mxCell id="V_PeOS1h4JGadpfZ_mjA-10" value="" style="strokeColor=inherit;fillColor=inherit;gradientColor=inherit;shape=rect;html=1;fontSize=10;verticalLabelPosition=top;verticalAlign=bottom;" parent="1" vertex="1">
          <mxGeometry x="928.46" y="230" width="20" height="20" as="geometry" />
        </mxCell>
        <mxCell id="V_PeOS1h4JGadpfZ_mjA-11" style="edgeStyle=orthogonalEdgeStyle;rounded=0;orthogonalLoop=1;jettySize=auto;html=1;exitX=0;exitY=0.5;exitDx=0;exitDy=0;entryX=1;entryY=0.5;entryDx=0;entryDy=0;endArrow=none;endFill=0;" parent="1" source="V_PeOS1h4JGadpfZ_mjA-14" target="V_PeOS1h4JGadpfZ_mjA-25" edge="1">
          <mxGeometry relative="1" as="geometry">
            <Array as="points">
              <mxPoint x="1044" y="440" />
              <mxPoint x="1044" y="500" />
              <mxPoint x="948" y="500" />
            </Array>
          </mxGeometry>
        </mxCell>
        <mxCell id="V_PeOS1h4JGadpfZ_mjA-12" value="&lt;font style=&quot;font-size: 10px;&quot;&gt;w = rad/s &lt;br&gt;(vitesse angulaire)&lt;/font&gt;" style="edgeLabel;html=1;align=center;verticalAlign=middle;resizable=0;points=[];" parent="V_PeOS1h4JGadpfZ_mjA-11" vertex="1" connectable="0">
          <mxGeometry x="-0.692" y="2" relative="1" as="geometry">
            <mxPoint x="-7" y="18" as="offset" />
          </mxGeometry>
        </mxCell>
        <mxCell id="V_PeOS1h4JGadpfZ_mjA-13" value="w = rad/s" style="edgeLabel;html=1;align=center;verticalAlign=middle;resizable=0;points=[];" parent="V_PeOS1h4JGadpfZ_mjA-11" vertex="1" connectable="0">
          <mxGeometry x="0.8181" y="1" relative="1" as="geometry">
            <mxPoint y="14" as="offset" />
          </mxGeometry>
        </mxCell>
        <mxCell id="V_PeOS1h4JGadpfZ_mjA-14" value="" style="strokeColor=inherit;fillColor=inherit;gradientColor=inherit;shape=rect;html=1;fontSize=10;verticalLabelPosition=top;verticalAlign=bottom;" parent="1" vertex="1">
          <mxGeometry x="1138.46" y="430.00000000000006" width="20" height="20" as="geometry" />
        </mxCell>
        <mxCell id="V_PeOS1h4JGadpfZ_mjA-15" style="edgeStyle=orthogonalEdgeStyle;rounded=0;orthogonalLoop=1;jettySize=auto;html=1;exitX=0;exitY=0.5;exitDx=0;exitDy=0;entryX=1;entryY=0.5;entryDx=0;entryDy=0;endArrow=none;endFill=0;" parent="1" source="V_PeOS1h4JGadpfZ_mjA-17" target="V_PeOS1h4JGadpfZ_mjA-10" edge="1">
          <mxGeometry relative="1" as="geometry" />
        </mxCell>
        <mxCell id="V_PeOS1h4JGadpfZ_mjA-16" value="&lt;font style=&quot;font-size: 10px;&quot;&gt;r : m(mètre)&lt;/font&gt;" style="edgeLabel;html=1;align=center;verticalAlign=middle;resizable=0;points=[];" parent="V_PeOS1h4JGadpfZ_mjA-15" vertex="1" connectable="0">
          <mxGeometry x="0.8372" y="3" relative="1" as="geometry">
            <mxPoint x="4" y="-13" as="offset" />
          </mxGeometry>
        </mxCell>
        <mxCell id="V_PeOS1h4JGadpfZ_mjA-17" value="" style="strokeColor=inherit;fillColor=inherit;gradientColor=inherit;shape=rect;html=1;fontSize=10;verticalLabelPosition=top;verticalAlign=bottom;" parent="1" vertex="1">
          <mxGeometry x="1138.46" y="390.00000000000006" width="20" height="20" as="geometry" />
        </mxCell>
        <mxCell id="V_PeOS1h4JGadpfZ_mjA-18" value="" style="strokeColor=inherit;fillColor=inherit;gradientColor=inherit;shape=rect;html=1;fontSize=10;verticalLabelPosition=top;verticalAlign=bottom;" parent="1" vertex="1">
          <mxGeometry x="858.46" y="450.00000000000006" width="20" height="20" as="geometry" />
        </mxCell>
        <mxCell id="V_PeOS1h4JGadpfZ_mjA-19" style="edgeStyle=orthogonalEdgeStyle;rounded=0;orthogonalLoop=1;jettySize=auto;html=1;exitX=0.5;exitY=0;exitDx=0;exitDy=0;endArrow=none;endFill=0;" parent="1" source="V_PeOS1h4JGadpfZ_mjA-20" edge="1">
          <mxGeometry relative="1" as="geometry">
            <mxPoint x="863.550909090909" y="140" as="targetPoint" />
          </mxGeometry>
        </mxCell>
        <mxCell id="V_PeOS1h4JGadpfZ_mjA-20" value="" style="strokeColor=inherit;fillColor=inherit;gradientColor=inherit;shape=rect;html=1;fontSize=10;verticalLabelPosition=top;verticalAlign=bottom;" parent="1" vertex="1">
          <mxGeometry x="853.46" y="190" width="20" height="20" as="geometry" />
        </mxCell>
        <mxCell id="V_PeOS1h4JGadpfZ_mjA-21" style="edgeStyle=orthogonalEdgeStyle;rounded=0;orthogonalLoop=1;jettySize=auto;html=1;exitX=0.5;exitY=1;exitDx=0;exitDy=0;entryX=0.5;entryY=0;entryDx=0;entryDy=0;endArrow=none;endFill=0;" parent="1" source="V_PeOS1h4JGadpfZ_mjA-24" target="V_PeOS1h4JGadpfZ_mjA-18" edge="1">
          <mxGeometry relative="1" as="geometry" />
        </mxCell>
        <mxCell id="V_PeOS1h4JGadpfZ_mjA-22" value="τ : Nm(couple moteur)" style="edgeLabel;html=1;align=center;verticalAlign=middle;resizable=0;points=[];" parent="V_PeOS1h4JGadpfZ_mjA-21" vertex="1" connectable="0">
          <mxGeometry x="0.8594" y="1" relative="1" as="geometry">
            <mxPoint x="54" y="1" as="offset" />
          </mxGeometry>
        </mxCell>
        <mxCell id="V_PeOS1h4JGadpfZ_mjA-23" value="τ : Nm(couple moteur)" style="edgeLabel;html=1;align=center;verticalAlign=middle;resizable=0;points=[];" parent="V_PeOS1h4JGadpfZ_mjA-21" vertex="1" connectable="0">
          <mxGeometry x="-0.8815" relative="1" as="geometry">
            <mxPoint x="60" as="offset" />
          </mxGeometry>
        </mxCell>
        <mxCell id="V_PeOS1h4JGadpfZ_mjA-24" value="" style="strokeColor=inherit;fillColor=inherit;gradientColor=inherit;shape=rect;html=1;fontSize=10;verticalLabelPosition=top;verticalAlign=bottom;" parent="1" vertex="1">
          <mxGeometry x="858.46" y="270.00000000000006" width="20" height="20" as="geometry" />
        </mxCell>
        <mxCell id="V_PeOS1h4JGadpfZ_mjA-25" value="" style="strokeColor=inherit;fillColor=inherit;gradientColor=inherit;shape=rect;html=1;fontSize=10;verticalLabelPosition=top;verticalAlign=bottom;" parent="1" vertex="1">
          <mxGeometry x="928.46" y="485.00000000000006" width="20" height="20" as="geometry" />
        </mxCell>
        <mxCell id="V_PeOS1h4JGadpfZ_mjA-26" value="Accéleration&lt;br&gt;a=derive(V/t)" style="rounded=1;whiteSpace=wrap;html=1;fillColor=#fff2cc;strokeColor=#d6b656;" parent="1" vertex="1">
          <mxGeometry x="1158.46" y="202.5" width="150" height="75" as="geometry" />
        </mxCell>
        <mxCell id="V_PeOS1h4JGadpfZ_mjA-27" style="edgeStyle=orthogonalEdgeStyle;rounded=0;orthogonalLoop=1;jettySize=auto;html=1;exitX=0.5;exitY=1;exitDx=0;exitDy=0;entryX=0.5;entryY=0;entryDx=0;entryDy=0;endArrow=none;endFill=0;" parent="1" source="V_PeOS1h4JGadpfZ_mjA-30" target="V_PeOS1h4JGadpfZ_mjA-35" edge="1">
          <mxGeometry relative="1" as="geometry">
            <Array as="points" />
          </mxGeometry>
        </mxCell>
        <mxCell id="V_PeOS1h4JGadpfZ_mjA-28" value="&lt;font style=&quot;font-size: 10px;&quot;&gt;V : m/s&lt;/font&gt;" style="edgeLabel;html=1;align=center;verticalAlign=middle;resizable=0;points=[];" parent="V_PeOS1h4JGadpfZ_mjA-27" vertex="1" connectable="0">
          <mxGeometry x="-0.7212" y="-1" relative="1" as="geometry">
            <mxPoint x="18" y="-5" as="offset" />
          </mxGeometry>
        </mxCell>
        <mxCell id="V_PeOS1h4JGadpfZ_mjA-29" value="&lt;font style=&quot;font-size: 10px;&quot;&gt;V : m/s&lt;/font&gt;" style="edgeLabel;html=1;align=center;verticalAlign=middle;resizable=0;points=[];" parent="V_PeOS1h4JGadpfZ_mjA-27" vertex="1" connectable="0">
          <mxGeometry x="0.749" y="-2" relative="1" as="geometry">
            <mxPoint x="22" as="offset" />
          </mxGeometry>
        </mxCell>
        <mxCell id="V_PeOS1h4JGadpfZ_mjA-30" value="" style="strokeColor=inherit;fillColor=inherit;gradientColor=inherit;shape=rect;html=1;fontSize=10;verticalLabelPosition=top;verticalAlign=bottom;" parent="1" vertex="1">
          <mxGeometry x="1218.46" y="267.50000000000006" width="20" height="20" as="geometry" />
        </mxCell>
        <mxCell id="V_PeOS1h4JGadpfZ_mjA-31" style="edgeStyle=orthogonalEdgeStyle;rounded=0;orthogonalLoop=1;jettySize=auto;html=1;exitX=0.5;exitY=0;exitDx=0;exitDy=0;endArrow=none;endFill=0;" parent="1" source="V_PeOS1h4JGadpfZ_mjA-32" edge="1">
          <mxGeometry relative="1" as="geometry">
            <mxPoint x="1188.46" y="140" as="targetPoint" />
          </mxGeometry>
        </mxCell>
        <mxCell id="V_PeOS1h4JGadpfZ_mjA-32" value="" style="strokeColor=inherit;fillColor=inherit;gradientColor=inherit;shape=rect;html=1;fontSize=10;verticalLabelPosition=top;verticalAlign=bottom;" parent="1" vertex="1">
          <mxGeometry x="1178.46" y="192.5" width="20" height="20" as="geometry" />
        </mxCell>
        <mxCell id="V_PeOS1h4JGadpfZ_mjA-33" style="edgeStyle=orthogonalEdgeStyle;rounded=0;orthogonalLoop=1;jettySize=auto;html=1;exitX=0.5;exitY=0;exitDx=0;exitDy=0;endArrow=none;endFill=0;" parent="1" source="V_PeOS1h4JGadpfZ_mjA-34" edge="1">
          <mxGeometry relative="1" as="geometry">
            <mxPoint x="1265.6028571428571" y="140" as="targetPoint" />
          </mxGeometry>
        </mxCell>
        <mxCell id="V_PeOS1h4JGadpfZ_mjA-34" value="" style="strokeColor=inherit;fillColor=inherit;gradientColor=inherit;shape=rect;html=1;fontSize=10;verticalLabelPosition=top;verticalAlign=bottom;" parent="1" vertex="1">
          <mxGeometry x="1255.46" y="192.5" width="20" height="20" as="geometry" />
        </mxCell>
        <mxCell id="V_PeOS1h4JGadpfZ_mjA-35" value="" style="strokeColor=inherit;fillColor=inherit;gradientColor=inherit;shape=rect;html=1;fontSize=10;verticalLabelPosition=top;verticalAlign=bottom;" parent="1" vertex="1">
          <mxGeometry x="1218.46" y="370.00000000000006" width="20" height="20" as="geometry" />
        </mxCell>
        <mxCell id="V_PeOS1h4JGadpfZ_mjA-36" value="F : N (force)" style="rounded=0;whiteSpace=wrap;html=1;" parent="1" vertex="1">
          <mxGeometry x="823.46" y="110.00000000000001" width="80" height="40" as="geometry" />
        </mxCell>
        <mxCell id="V_PeOS1h4JGadpfZ_mjA-37" value="&lt;font style=&quot;font-size: 10px;&quot;&gt;r : m(rayon)&lt;/font&gt;" style="edgeLabel;html=1;align=center;verticalAlign=middle;resizable=0;points=[];" parent="1" vertex="1" connectable="0">
          <mxGeometry x="1108.4611111111112" y="390.00000000000006" as="geometry" />
        </mxCell>
        <mxCell id="V_PeOS1h4JGadpfZ_mjA-38" value="a :&amp;nbsp;m/s&lt;sup style=&quot;line-height: 1; font-size: 11.2px; color: rgb(32, 33, 34); font-family: sans-serif; text-align: start; background-color: rgb(255, 255, 255);&quot;&gt;2&lt;/sup&gt;" style="rounded=0;whiteSpace=wrap;html=1;" parent="1" vertex="1">
          <mxGeometry x="1158.46" y="110.00000000000001" width="60" height="30" as="geometry" />
        </mxCell>
        <mxCell id="V_PeOS1h4JGadpfZ_mjA-39" value="t : s" style="rounded=0;whiteSpace=wrap;html=1;" parent="1" vertex="1">
          <mxGeometry x="1240.46" y="110.00000000000001" width="50" height="30" as="geometry" />
        </mxCell>
      </root>
    </mxGraphModel>
  </diagram>
</mxfile>
